<svg width="532" height="433" viewBox="0 0 532 433" fill="none" xmlns="http://www.w3.org/2000/svg">
<path d="M333.443 424.187H198.557L206.274 366.152H326.828L333.443 424.187Z" fill="#81858A"/>
<path d="M0 317.545V353.385C0.0113531 356.889 1.40929 360.247 3.88845 362.725C6.3676 365.203 9.72649 366.598 13.2314 366.607H518.76C522.263 366.596 525.62 365.199 528.097 362.722C530.575 360.245 531.971 356.888 531.983 353.385V317.545H0Z" fill="#D0D6DB"/>
<path d="M532 13.2314C531.991 9.72351 530.593 6.36204 528.112 3.88239C525.63 1.40274 522.268 0.0068129 518.76 0L13.2314 0C9.725 0.00908396 6.36482 1.40602 3.88542 3.88542C1.40602 6.36482 0.00908396 9.725 0 13.2314L0 317.545H532V13.2314Z" fill="#3E3D40"/>
<path d="M513.262 17.6448H18.7454V299.909H513.262V17.6448Z" fill="#ECEDED"/>
<path d="M198.556 424.188H333.442L357.169 429.797L174.829 429.934L198.556 424.188Z" fill="#D0D6DB"/>
<path d="M355.932 432.911H176.069L174.882 429.934L357.171 429.797L355.932 432.911Z" fill="#81858A"/>
<path d="M275.46 343.637C275.46 345.509 274.905 347.339 273.865 348.895C272.825 350.451 271.347 351.664 269.618 352.38C267.888 353.097 265.986 353.284 264.15 352.919C262.314 352.554 260.628 351.652 259.305 350.329C257.981 349.006 257.08 347.319 256.715 345.484C256.35 343.648 256.537 341.745 257.253 340.016C257.97 338.287 259.183 336.809 260.739 335.769C262.295 334.729 264.125 334.174 265.996 334.174C268.506 334.174 270.913 335.171 272.688 336.946C274.463 338.721 275.46 341.128 275.46 343.637Z" fill="#3E3D40"/>
</svg>
