<svg width="129" height="131" viewBox="0 0 129 131" fill="none" xmlns="http://www.w3.org/2000/svg">
<path d="M15.9794 8.98725C15.9794 13.3998 12.4023 16.9769 7.98969 16.9769C3.57711 16.9769 0 13.3998 0 8.98725C0 4.57467 3.57711 0.997559 7.98969 0.997559C12.4023 0.997559 15.9794 4.57467 15.9794 8.98725Z" fill="#FFC300"/>
<path d="M61.9999 8.98725C61.9999 13.3998 58.4228 16.9769 54.0102 16.9769C49.5976 16.9769 46.0205 13.3998 46.0205 8.98725C46.0205 4.57467 49.5976 0.997559 54.0102 0.997559C58.4228 0.997559 61.9999 4.57467 61.9999 8.98725Z" fill="#FFC300"/>
<path d="M38.9901 8.98725C38.9901 13.3998 35.413 16.9769 31.0004 16.9769C26.5878 16.9769 23.0107 13.3998 23.0107 8.98725C23.0107 4.57467 26.5878 0.997559 31.0004 0.997559C35.413 0.997559 38.9901 4.57467 38.9901 8.98725Z" fill="#FFC300"/>
<path d="M15.9794 55.0079C15.9794 59.4204 12.4023 62.9976 7.98969 62.9976C3.57711 62.9976 0 59.4204 0 55.0079C0 50.5953 3.57711 47.0182 7.98969 47.0182C12.4023 47.0182 15.9794 50.5953 15.9794 55.0079Z" fill="#FFC300"/>
<path d="M61.9999 55.0079C61.9999 59.4205 58.4228 62.9976 54.0102 62.9976C49.5976 62.9976 46.0205 59.4205 46.0205 55.0079C46.0205 50.5953 49.5976 47.0182 54.0102 47.0182C58.4228 47.0182 61.9999 50.5953 61.9999 55.0079Z" fill="#FFC300"/>
<path d="M38.9901 55.0079C38.9901 59.4205 35.413 62.9976 31.0004 62.9976C26.5878 62.9976 23.0107 59.4205 23.0107 55.0079C23.0107 50.5953 26.5878 47.0182 31.0004 47.0182C35.413 47.0182 38.9901 50.5953 38.9901 55.0079Z" fill="#FFC300"/>
<path d="M15.9794 31.9976C15.9794 36.4101 12.4023 39.9873 7.98969 39.9873C3.57711 39.9873 0 36.4101 0 31.9976C0 27.585 3.57711 24.0079 7.98969 24.0079C12.4023 24.0079 15.9794 27.585 15.9794 31.9976Z" fill="#FFC300"/>
<path d="M61.9999 31.9975C61.9999 36.4101 58.4228 39.9872 54.0102 39.9872C49.5976 39.9872 46.0205 36.4101 46.0205 31.9975C46.0205 27.5849 49.5976 24.0078 54.0102 24.0078C58.4228 24.0078 61.9999 27.5849 61.9999 31.9975Z" fill="#FFC300"/>
<path d="M38.9901 31.9975C38.9901 36.4101 35.413 39.9872 31.0004 39.9872C26.5878 39.9872 23.0107 36.4101 23.0107 31.9975C23.0107 27.5849 26.5878 24.0078 31.0004 24.0078C35.413 24.0078 38.9901 27.5849 38.9901 31.9975Z" fill="#FFC300"/>
<path d="M82.9794 8.98725C82.9794 13.3998 79.4023 16.9769 74.9897 16.9769C70.5771 16.9769 67 13.3998 67 8.98725C67 4.57467 70.5771 0.997559 74.9897 0.997559C79.4023 0.997559 82.9794 4.57467 82.9794 8.98725Z" fill="#FFC300"/>
<path d="M129 8.98725C129 13.3998 125.423 16.9769 121.01 16.9769C116.598 16.9769 113.021 13.3998 113.021 8.98725C113.021 4.57467 116.598 0.997559 121.01 0.997559C125.423 0.997559 129 4.57467 129 8.98725Z" fill="#FFC300"/>
<path d="M105.99 8.98725C105.99 13.3998 102.413 16.9769 98.0004 16.9769C93.5879 16.9769 90.0107 13.3998 90.0107 8.98725C90.0107 4.57467 93.5879 0.997559 98.0004 0.997559C102.413 0.997559 105.99 4.57467 105.99 8.98725Z" fill="#FFC300"/>
<path d="M82.9794 55.0079C82.9794 59.4204 79.4023 62.9976 74.9897 62.9976C70.5771 62.9976 67 59.4204 67 55.0079C67 50.5953 70.5771 47.0182 74.9897 47.0182C79.4023 47.0182 82.9794 50.5953 82.9794 55.0079Z" fill="#FFC300"/>
<path d="M129 55.0079C129 59.4205 125.423 62.9976 121.01 62.9976C116.598 62.9976 113.021 59.4205 113.021 55.0079C113.021 50.5953 116.598 47.0182 121.01 47.0182C125.423 47.0182 129 50.5953 129 55.0079Z" fill="#FFC300"/>
<path d="M105.99 55.0079C105.99 59.4205 102.413 62.9976 98.0004 62.9976C93.5879 62.9976 90.0107 59.4205 90.0107 55.0079C90.0107 50.5953 93.5879 47.0182 98.0004 47.0182C102.413 47.0182 105.99 50.5953 105.99 55.0079Z" fill="#FFC300"/>
<path d="M82.9794 31.9976C82.9794 36.4101 79.4023 39.9873 74.9897 39.9873C70.5771 39.9873 67 36.4101 67 31.9976C67 27.585 70.5771 24.0079 74.9897 24.0079C79.4023 24.0079 82.9794 27.585 82.9794 31.9976Z" fill="#FFC300"/>
<path d="M129 31.9975C129 36.4101 125.423 39.9872 121.01 39.9872C116.598 39.9872 113.021 36.4101 113.021 31.9975C113.021 27.5849 116.598 24.0078 121.01 24.0078C125.423 24.0078 129 27.5849 129 31.9975Z" fill="#FFC300"/>
<path d="M105.99 31.9975C105.99 36.4101 102.413 39.9872 98.0004 39.9872C93.5879 39.9872 90.0107 36.4101 90.0107 31.9975C90.0107 27.5849 93.5879 24.0078 98.0004 24.0078C102.413 24.0078 105.99 27.5849 105.99 31.9975Z" fill="#FFC300"/>
<path d="M15.9794 76.9873C15.9794 81.3998 12.4023 84.9769 7.98969 84.9769C3.57711 84.9769 0 81.3998 0 76.9873C0 72.5747 3.57711 68.9976 7.98969 68.9976C12.4023 68.9976 15.9794 72.5747 15.9794 76.9873Z" fill="#FFC300"/>
<path d="M61.9999 76.9873C61.9999 81.3998 58.4228 84.9769 54.0102 84.9769C49.5976 84.9769 46.0205 81.3998 46.0205 76.9873C46.0205 72.5747 49.5976 68.9976 54.0102 68.9976C58.4228 68.9976 61.9999 72.5747 61.9999 76.9873Z" fill="#FFC300"/>
<path d="M38.9901 76.9873C38.9901 81.3998 35.413 84.9769 31.0004 84.9769C26.5878 84.9769 23.0107 81.3998 23.0107 76.9873C23.0107 72.5747 26.5878 68.9976 31.0004 68.9976C35.413 68.9976 38.9901 72.5747 38.9901 76.9873Z" fill="#FFC300"/>
<path d="M15.9794 123.008C15.9794 127.42 12.4023 130.998 7.98969 130.998C3.57711 130.998 0 127.42 0 123.008C0 118.595 3.57711 115.018 7.98969 115.018C12.4023 115.018 15.9794 118.595 15.9794 123.008Z" fill="#FFC300"/>
<path d="M61.9999 123.008C61.9999 127.42 58.4228 130.998 54.0102 130.998C49.5976 130.998 46.0205 127.42 46.0205 123.008C46.0205 118.595 49.5976 115.018 54.0102 115.018C58.4228 115.018 61.9999 118.595 61.9999 123.008Z" fill="#FFC300"/>
<path d="M38.9901 123.008C38.9901 127.42 35.413 130.998 31.0004 130.998C26.5878 130.998 23.0107 127.42 23.0107 123.008C23.0107 118.595 26.5878 115.018 31.0004 115.018C35.413 115.018 38.9901 118.595 38.9901 123.008Z" fill="#FFC300"/>
<path d="M15.9794 99.9976C15.9794 104.41 12.4023 107.987 7.98969 107.987C3.57711 107.987 0 104.41 0 99.9976C0 95.585 3.57711 92.0079 7.98969 92.0079C12.4023 92.0079 15.9794 95.585 15.9794 99.9976Z" fill="#FFC300"/>
<path d="M61.9999 99.9975C61.9999 104.41 58.4228 107.987 54.0102 107.987C49.5976 107.987 46.0205 104.41 46.0205 99.9975C46.0205 95.5849 49.5976 92.0078 54.0102 92.0078C58.4228 92.0078 61.9999 95.5849 61.9999 99.9975Z" fill="#FFC300"/>
<path d="M38.9901 99.9975C38.9901 104.41 35.413 107.987 31.0004 107.987C26.5878 107.987 23.0107 104.41 23.0107 99.9975C23.0107 95.5849 26.5878 92.0078 31.0004 92.0078C35.413 92.0078 38.9901 95.5849 38.9901 99.9975Z" fill="#FFC300"/>
<path d="M82.9794 76.9873C82.9794 81.3998 79.4023 84.9769 74.9897 84.9769C70.5771 84.9769 67 81.3998 67 76.9873C67 72.5747 70.5771 68.9976 74.9897 68.9976C79.4023 68.9976 82.9794 72.5747 82.9794 76.9873Z" fill="#FFC300"/>
<path d="M129 76.9873C129 81.3998 125.423 84.9769 121.01 84.9769C116.598 84.9769 113.021 81.3998 113.021 76.9873C113.021 72.5747 116.598 68.9976 121.01 68.9976C125.423 68.9976 129 72.5747 129 76.9873Z" fill="#FFC300"/>
<path d="M105.99 76.9873C105.99 81.3998 102.413 84.9769 98.0004 84.9769C93.5879 84.9769 90.0107 81.3998 90.0107 76.9873C90.0107 72.5747 93.5879 68.9976 98.0004 68.9976C102.413 68.9976 105.99 72.5747 105.99 76.9873Z" fill="#FFC300"/>
<path d="M82.9794 123.008C82.9794 127.42 79.4023 130.998 74.9897 130.998C70.5771 130.998 67 127.42 67 123.008C67 118.595 70.5771 115.018 74.9897 115.018C79.4023 115.018 82.9794 118.595 82.9794 123.008Z" fill="#FFC300"/>
<path d="M129 123.008C129 127.42 125.423 130.998 121.01 130.998C116.598 130.998 113.021 127.42 113.021 123.008C113.021 118.595 116.598 115.018 121.01 115.018C125.423 115.018 129 118.595 129 123.008Z" fill="#FFC300"/>
<path d="M105.99 123.008C105.99 127.42 102.413 130.998 98.0004 130.998C93.5879 130.998 90.0107 127.42 90.0107 123.008C90.0107 118.595 93.5879 115.018 98.0004 115.018C102.413 115.018 105.99 118.595 105.99 123.008Z" fill="#FFC300"/>
<path d="M82.9794 99.9976C82.9794 104.41 79.4023 107.987 74.9897 107.987C70.5771 107.987 67 104.41 67 99.9976C67 95.585 70.5771 92.0079 74.9897 92.0079C79.4023 92.0079 82.9794 95.585 82.9794 99.9976Z" fill="#FFC300"/>
<path d="M129 99.9975C129 104.41 125.423 107.987 121.01 107.987C116.598 107.987 113.021 104.41 113.021 99.9975C113.021 95.5849 116.598 92.0078 121.01 92.0078C125.423 92.0078 129 95.5849 129 99.9975Z" fill="#FFC300"/>
<path d="M105.99 99.9975C105.99 104.41 102.413 107.987 98.0004 107.987C93.5879 107.987 90.0107 104.41 90.0107 99.9975C90.0107 95.5849 93.5879 92.0078 98.0004 92.0078C102.413 92.0078 105.99 95.5849 105.99 99.9975Z" fill="#FFC300"/>
</svg>
