<svg width="527" height="556" viewBox="0 0 527 556" fill="none" xmlns="http://www.w3.org/2000/svg">
<path d="M346.607 217.016C346.575 214.535 351.241 213.549 353.341 217.521C355.63 221.061 353.196 228.755 345.601 230.433C338.386 232.567 327.793 226.632 326.409 215.501C324.452 204.768 333.821 191.14 348.62 190.181C362.996 188.382 379.674 201.262 380.274 219.541C381.91 237.463 365.531 257.039 343.587 257.27C322.001 258.76 299.35 238.889 299.476 213.48C298.182 188.404 321.515 162.796 350.633 163.347C379.467 162.22 408.053 188.987 407.208 221.562C408.176 253.876 377.894 285.325 341.575 284.105C305.602 284.835 270.913 251.239 272.542 211.46C271.919 171.951 309.148 134.559 352.646 136.512C395.847 136.09 436.501 176.664 434.142 223.582C434.406 270.25 390.238 313.662 339.562 310.939C289.153 311.013 242.52 263.515 245.608 209.44C245.638 155.586 296.83 106.227 354.659 109.678C412.251 109.949 464.931 164.377 461.073 225.602C460.688 286.639 402.575 341.956 337.549 337.774C272.697 337.15 214.142 275.79 218.677 207.419C219.458 139.219 284.418 77.8851 356.672 82.843C428.739 83.7776 493.272 152.112 488.007 227.623C486.879 302.997 414.971 370.297 335.536 364.608C256.274 363.327 185.722 288.065 191.743 205.399C193.151 122.839 272.134 49.5921 358.685 56.0084C445.156 57.6376 521.704 139.826 514.941 229.643C513.162 319.372 427.304 398.632 333.523 391.443C239.841 389.504 157.331 300.329 164.81 203.379C166.924 106.415 259.773 21.3065 360.698 29.1738C461.575 31.5108 550.126 127.501 541.874 231.663C539.438 335.826 439.632 426.864 331.51 418.278C223.426 415.58 128.894 312.675 137.876 201.358C140.642 90.0396 247.452 -7.026 362.711 2.33926C478.047 5.34861 578.505 115.226 568.806 233.684C565.682 352.188 451.975 455.212 329.497 445.113C206.98 441.756 100.476 324.95 110.943 199.338C114.374 73.6496 235.093 -35.3247 364.724 -24.4953C494.506 -20.7883 606.885 102.936 595.739 235.704C591.913 368.549 464.359 483.551 327.484 471.947C190.478 467.941 72.1485 337.218 84.01 197.318C88.1819 57.281 222.681 -63.6535 366.737 -51.3299C510.926 -46.9779 635.316 90.6774 622.673 237.724C618.18 384.949 476.696 511.835 325.471 498.782C174.074 494.069 43.7168 349.503 57.077 195.297C61.8991 40.9161 210.362 -91.9859 368.749 -78.1645C527.362 -73.1559 663.707 78.4138 649.607 239.745C644.433 401.362 489.033 540.119 323.458 525.617C157.707 520.2 15.2564 361.825 30.1437 193.277C35.636 24.4634 198.023 -120.233 370.762 -104.999C543.764 -99.2315 692.144 66.0643 676.538 241.765C670.716 417.739 501.364 568.454 321.445 552.451C141.234 546.374 -13.1232 374.101 3.21071 191.257" stroke="#ECECEC" stroke-width="3" stroke-linecap="round"/>
</svg>
